HIERARCHY
ROOT Hips
{
	OFFSET 0.000000 0.000000 0.000000
	CHANNELS 6 Xposition Yposition Zposition Xrotation Yrotation Zrotation
	JOINT LeftUpLeg_virtual
	{
		OFFSET 0.000000 0.000000 0.000000
		CHANNELS 3 Xrotation Yrotation Zrotation
		JOINT LeftUpLeg
		{
			OFFSET 10.205400 -3.823500 0.155100
			CHANNELS 3 Xrotation Yrotation Zrotation
			JOINT LeftLeg
			{
				OFFSET 0.708757 -12.982077 0.567790
				CHANNELS 3 Xrotation Yrotation Zrotation
				JOINT LeftFoot
				{
					OFFSET -0.708756 -10.717838 -2.184338
					CHANNELS 3 Xrotation Yrotation Zrotation
					JOINT LeftToeBase
					{
						OFFSET 0.108149 -7.191104 7.560241
						CHANNELS 3 Xrotation Yrotation Zrotation
						JOINT LeftToe_End
						{
							OFFSET 0.070230 0.081724 4.490308
							CHANNELS 3 Xrotation Yrotation Zrotation
							End Site
							{
								OFFSET 0 0 0
							}
						}
					}
				}
			}
		}
	}
	JOINT RightUpLeg_virtual
	{
		OFFSET 0.000000 0.000000 0.000000
		CHANNELS 3 Xrotation Yrotation Zrotation
		JOINT RightUpLeg
		{
			OFFSET -10.205400 -3.823500 0.005500
			CHANNELS 3 Xrotation Yrotation Zrotation
			JOINT RightLeg
			{
				OFFSET -0.708756 -12.982134 0.610632
				CHANNELS 3 Xrotation Yrotation Zrotation
				JOINT RightFoot
				{
					OFFSET 0.708754 -10.717769 -1.945823
					CHANNELS 3 Xrotation Yrotation Zrotation
					JOINT RightToeBase
					{
						OFFSET -0.108140 -7.191069 7.372968
						CHANNELS 3 Xrotation Yrotation Zrotation
						JOINT RightToe_End
						{
							OFFSET -0.070227 0.081735 4.479403
							CHANNELS 3 Xrotation Yrotation Zrotation
							End Site
							{
								OFFSET 0 0 0
							}
						}
					}
				}
			}
		}
	}
	JOINT Spine_virtual
	{
		OFFSET 0.000000 0.000000 0.000000
		CHANNELS 3 Xrotation Yrotation Zrotation
		JOINT Spine
		{
			OFFSET 0.000000 6.876099 0.125700
			CHANNELS 3 Xrotation Yrotation Zrotation
			JOINT Spine1
			{
				OFFSET 0.000000 5.730043 0.104720
				CHANNELS 3 Xrotation Yrotation Zrotation
				JOINT Spine1_split
				{
					OFFSET 0.000000 5.730043 0.104720
					CHANNELS 3 Xrotation Yrotation Zrotation
					JOINT Spine2
					{
						OFFSET 0.000000 5.730043 0.104720
						CHANNELS 3 Xrotation Yrotation Zrotation
						JOINT Neck_virtual
						{
							OFFSET 0.000000 0.000000 0.000000
							CHANNELS 3 Xrotation Yrotation Zrotation
							JOINT Neck
							{
								OFFSET 0.000000 10.314075 0.188496
								CHANNELS 3 Xrotation Yrotation Zrotation
								JOINT Head
								{
									OFFSET 0.000000 7.643700 -2.377400
									CHANNELS 3 Xrotation Yrotation Zrotation
									JOINT HeadTop_End
									{
										OFFSET 0.000000 43.788605 -13.619600
										CHANNELS 3 Xrotation Yrotation Zrotation
										End Site
										{
											OFFSET 0 0 0
										}
									}
								}
							}
						}
						JOINT LeftShoulder_virtual
						{
							OFFSET 0.000000 0.000000 0.000000
							CHANNELS 3 Xrotation Yrotation Zrotation
							JOINT LeftShoulder
							{
								OFFSET 2.196100 4.412489 0.087492
								CHANNELS 3 Xrotation Yrotation Zrotation
								JOINT LeftShoulder_split
								{
									OFFSET 2.196100 4.412489 0.087492
									CHANNELS 3 Xrotation Yrotation Zrotation
									JOINT LeftArm
									{
										OFFSET 8.771219 -2.981674 -0.026999
										CHANNELS 3 Xrotation Yrotation Zrotation
										JOINT LeftForeArm
										{
											OFFSET 8.512804 0.000000 -0.000000
											CHANNELS 3 Xrotation Yrotation Zrotation
											JOINT LeftHand
											{
												OFFSET 18.484802 0.000000 -0.000000
												CHANNELS 3 Xrotation Yrotation Zrotation
												End Site
												{
													OFFSET 0 0 0
												}
											}
										}
									}
								}
							}
						}
						JOINT RightShoulder_virtual
						{
							OFFSET 0.000000 0.000000 0.000000
							CHANNELS 3 Xrotation Yrotation Zrotation
							JOINT RightShoulder
							{
								OFFSET -2.196100 4.412496 0.070690
								CHANNELS 3 Xrotation Yrotation Zrotation
								JOINT RightShoulder_split
								{
									OFFSET -2.196100 4.412496 0.070690
									CHANNELS 3 Xrotation Yrotation Zrotation
									JOINT RightArm
									{
										OFFSET -8.771282 -2.981682 -0.094208
										CHANNELS 3 Xrotation Yrotation Zrotation
										JOINT RightForeArm
										{
											OFFSET -8.494598 0.000000 0.000000
											CHANNELS 3 Xrotation Yrotation Zrotation
											JOINT RightHand
											{
												OFFSET -18.483803 0.000000 0.000001
												CHANNELS 3 Xrotation Yrotation Zrotation
												End Site
												{
													OFFSET 0 0 0
												}
											}
										}
									}
								}
							}
						}
					}
				}
			}
		}
	}
}
MOTION
Frames: 7
Frame Time: 0.03333333
18.922592 26.806509 94.579483 0.000000 0.000000 0.000000 -3.781463 15.645955 -11.448702 3.714332 6.352691 -8.510839 75.927292 6.997210 2.905603 -14.152978 0.145484 15.204706 1.271229 -0.174663 -1.052001 0.000000 0.000000 0.000000 -0.470738 19.638191 -12.066226 -46.187935 17.640253 7.053123 33.631056 -0.127399 -4.592781 13.036200 8.562315 11.065116 -8.168701 -2.999094 -0.052859 0.000000 0.000000 0.000000 -2.001182 23.826937 -10.685545 2.264607 -9.428626 -5.033389 3.819148 -2.485967 1.186259 -0.409585 0.026085 0.011734 0.000000 0.000000 0.000000 2.547070 -3.846555 2.146179 -1.999333 3.088863 1.068405 -10.630588 33.076793 4.989105 0.000000 0.000000 0.000000 1.917209 -2.993491 1.618991 -0.558999 -0.365956 -8.775220 1.758535 3.368894 -0.104888 16.285999 -12.450677 -46.497288 26.807321 -85.101070 23.104477 0.000000 0.000000 0.000000 2.919883 -3.383204 1.793309 0.347562 -4.176607 8.432223 2.078263 8.842961 -1.648717 37.875708 11.087412 50.613829 179.875081 83.801947 177.587145 0.000000 0.000000 0.000000 
21.125349 26.875574 99.012604 0.000000 0.000000 0.000000 -5.829398 14.550811 -11.629562 -18.122184 11.469587 -9.163266 93.480585 9.033689 3.922640 -14.635714 -2.661151 18.318508 -2.152503 -0.100168 -2.191760 0.000000 0.000000 0.000000 -1.650116 21.827280 -12.597265 -35.298083 14.131239 6.536136 47.928575 -4.065146 -1.717781 -12.042809 4.549713 1.122919 -7.446347 -2.862621 0.420640 0.000000 0.000000 0.000000 -4.838067 24.873155 -10.339672 5.001295 -6.488316 -4.947498 4.113075 -0.960058 1.409712 -0.735069 0.387007 0.101994 0.000000 0.000000 0.000000 3.194294 -2.369479 2.435402 -3.228111 2.845391 1.084915 -10.373053 30.818257 4.758803 0.000000 0.000000 0.000000 2.850997 -1.383755 1.517417 -0.394530 0.335845 -9.578051 1.198961 1.946095 -2.081270 27.329810 -14.618826 -51.203531 12.315885 -71.112159 8.450357 0.000000 0.000000 0.000000 3.794746 -1.708193 1.810301 -0.118286 -2.612783 10.890483 2.316490 8.055324 -0.495613 23.977741 16.964170 52.664126 -160.942165 88.353845 157.807177 0.000000 0.000000 0.000000 
22.855640 27.240604 102.275055 0.000000 0.000000 0.000000 -7.148695 15.084461 -11.726375 -41.714510 16.489730 -7.396943 105.028932 11.381014 4.027277 -15.785349 -5.207463 22.212385 -5.680405 0.180361 -4.330223 0.000000 0.000000 0.000000 -3.289458 24.108650 -12.491132 -28.929625 11.017170 4.951188 61.475985 -3.796528 1.281661 -27.423305 5.128046 -3.530443 -9.335417 -2.657072 0.544302 0.000000 0.000000 0.000000 -7.332597 25.252995 -10.432581 7.357282 -3.551991 -4.354372 4.550665 0.390264 1.537633 -0.176767 0.726879 0.210745 0.000000 0.000000 0.000000 3.996766 -0.919306 2.527817 -3.540916 2.635017 1.104391 -9.852038 28.444659 4.769032 0.000000 0.000000 0.000000 3.757616 0.092913 1.533013 -0.266926 1.070614 -9.154731 0.122968 0.644525 -3.081983 34.701101 -16.555547 -54.975598 9.720949 -61.733531 6.622237 0.000000 0.000000 0.000000 4.750304 -0.203615 1.694219 -0.557235 -1.896114 12.292506 2.977641 6.629215 -0.171439 9.243497 20.279009 55.705145 -140.959176 88.714581 137.984329 0.000000 0.000000 0.000000 
24.102209 27.559765 104.282326 0.000000 0.000000 0.000000 -7.078653 16.120607 -12.007017 -61.422512 18.555389 -3.730273 110.380945 12.885118 3.661858 -13.756010 -5.639891 24.138575 -6.621301 0.647604 -6.965289 0.000000 0.000000 0.000000 -4.754531 25.836077 -12.355997 -25.641519 9.326692 2.122914 68.390466 0.737096 2.156230 -32.022013 6.660442 -0.814919 -13.954396 -2.658775 0.334709 0.000000 0.000000 0.000000 -8.487339 25.196508 -11.280737 8.803215 -1.035091 -3.299983 5.036418 1.351568 1.523951 0.544671 1.263817 0.403620 0.000000 0.000000 0.000000 4.853202 0.244423 2.415281 -3.082666 2.400263 1.244760 -9.499885 26.524635 4.948107 0.000000 0.000000 0.000000 4.450026 1.262426 1.626599 -0.203429 1.613253 -8.028053 -0.943078 -0.398184 -2.401366 38.473551 -16.721172 -57.839264 7.535718 -59.228935 5.866446 0.000000 0.000000 0.000000 5.528408 0.870554 1.465728 -0.759681 -1.818485 12.422310 3.769247 5.157174 -0.220893 -2.146997 21.115549 57.781481 -162.670695 87.180541 160.558035 0.000000 0.000000 0.000000 
24.989677 27.630102 105.613312 0.000000 0.000000 0.000000 -5.805831 17.940682 -12.740143 -74.426099 18.148207 0.615370 110.955371 13.395644 2.909605 -8.565359 -3.900678 24.911534 -6.612452 0.859448 -7.738353 0.000000 0.000000 0.000000 -4.906196 26.040103 -12.877799 -23.254617 8.847734 -0.938267 68.807947 6.057696 1.536765 -31.156929 7.726873 4.859338 -15.968941 -2.900915 0.039181 0.000000 0.000000 0.000000 -8.227123 24.580580 -12.485874 9.126898 0.744908 -1.899135 5.468964 1.794142 1.400121 1.064105 1.125398 0.505551 0.000000 0.000000 0.000000 5.604118 0.942552 2.209707 -2.296890 2.245682 1.509125 -9.787014 25.555605 5.212517 0.000000 0.000000 0.000000 4.892976 1.895408 1.689149 -0.181732 1.854812 -6.720630 -1.561931 -0.947949 -1.332709 39.340274 -15.605288 -59.798067 4.816073 -61.864288 4.670804 0.000000 0.000000 0.000000 6.064401 1.422246 1.204639 -0.657923 -2.000619 11.688819 4.764895 4.400051 -0.646011 -8.262814 20.115558 58.445375 -169.995513 85.719981 169.006447 0.000000 0.000000 0.000000 
25.598770 27.319351 105.925529 0.000000 0.000000 0.000000 -3.870191 19.030343 -14.004034 -80.195088 16.844420 4.167053 109.137967 13.551304 1.868564 -1.516519 -0.807252 25.248404 -7.074324 0.715088 -6.099981 0.000000 0.000000 0.000000 -4.089622 25.071099 -14.122398 -20.726569 8.920734 -3.124844 65.555425 10.049907 1.133461 -30.458768 7.942731 9.212727 -11.918362 -3.051943 -0.135382 0.000000 0.000000 0.000000 -7.160672 23.318491 -13.751301 8.719815 1.809531 -0.397736 5.784071 1.765359 1.206533 2.114733 0.957792 0.596698 0.000000 0.000000 0.000000 6.008800 1.132018 1.991645 -1.470972 2.143942 1.942964 -10.870274 25.548819 5.460055 0.000000 0.000000 0.000000 5.170575 1.968492 1.628667 -0.129597 1.706492 -6.000239 -2.506211 -0.909223 -0.512220 39.107064 -13.928583 -61.206309 0.586636 -66.058987 1.781565 0.000000 0.000000 0.000000 6.342420 1.486439 0.992355 -0.310278 -2.091529 10.532054 5.229016 4.075747 -0.861440 -9.673135 18.377812 58.073403 -171.511951 85.696614 171.552249 0.000000 0.000000 0.000000 
26.018250 26.690786 105.915695 0.000000 0.000000 0.000000 -1.978852 19.634028 -15.625402 -81.083771 15.441338 6.515441 106.987858 12.953670 1.258714 5.946852 2.193012 23.707597 -7.337946 0.475216 -3.830661 0.000000 0.000000 0.000000 -3.194165 24.176559 -15.673619 -18.283785 8.735148 -4.343450 63.049927 12.172454 1.408132 -31.742331 7.248531 10.816910 -4.527230 -2.737802 -0.478811 0.000000 0.000000 0.000000 -5.611695 22.329806 -14.776158 7.726733 2.230638 0.929772 5.995616 1.452086 1.033506 2.378022 0.911116 0.624090 0.000000 0.000000 0.000000 6.012772 0.903455 1.830295 -0.869007 2.078001 2.447749 -12.430329 26.326703 5.503970 0.000000 0.000000 0.000000 5.431538 1.627496 1.448332 -0.050941 1.200384 -6.063874 -3.431692 -0.126794 -0.577532 38.991426 -12.560416 -62.064303 -3.913015 -68.723123 -1.922662 0.000000 0.000000 0.000000 6.419781 1.248242 0.900912 0.140783 -1.833771 9.558900 4.532983 4.065639 -0.573714 -8.041185 17.017360 57.147131 -168.838246 86.999972 169.421722 0.000000 0.000000 0.000000 
